<svg width="2903" height="2731" viewBox="0 0 2903 2731" fill="none" xmlns="http://www.w3.org/2000/svg">
<ellipse cx="1451.5" cy="1365.5" rx="1451.5" ry="1365.5" fill="#D90A09"/>
<path d="M1451 287.5C2098.02 287.5 2606.5 778.728 2606.5 1365.5C2606.5 1952.27 2098.02 2443.5 1451 2443.5C803.977 2443.5 295.5 1952.27 295.5 1365.5C295.5 778.728 803.977 287.5 1451 287.5Z" stroke="#092A3E" stroke-width="303"/>
<mask id="path-3-outside-1_57_14" maskUnits="userSpaceOnUse" x="901" y="740" width="1051" height="1250" fill="black">
<rect fill="white" x="901" y="740" width="1051" height="1250"/>
<path d="M1001.5 990H1101.5V1040H951.5V790H1101.5V840H1001.5V990ZM1151.5 990H1101.5V840H1151.5V990ZM1251.5 1040H1201.5V790H1351.5V840H1251.5V890H1351.5V940H1251.5V1040ZM1401.5 890H1351.5V840H1401.5V890ZM1401.5 1040H1351.5V940H1401.5V1040ZM1501.5 840V790H1601.5V840H1501.5ZM1501.5 990H1451.5V840H1501.5V990ZM1651.5 990H1601.5V840H1651.5V990ZM1601.5 990V1040H1501.5V990H1601.5ZM1751.5 1040H1701.5V790H1851.5V840H1751.5V890H1851.5V940H1751.5V1040ZM1851.5 890V840H1901.5V890H1851.5ZM1376.5 1490H1326.5V1240H1376.5V1290H1426.5V1340H1376.5V1490ZM1526.5 1490H1476.5V1390H1426.5V1340H1476.5V1240H1526.5V1490ZM1001.5 1740V1690H1151.5V1740H1001.5ZM951.5 1790V1740H1001.5V1790H951.5ZM1001.5 1790H1101.5V1840H1001.5V1790ZM1151.5 1890H1101.5V1840H1151.5V1890ZM1101.5 1890V1940H951.5V1890H1101.5ZM1401.5 1890V1940H1201.5V1690H1401.5V1740H1251.5V1790H1351.5V1840H1251.5V1890H1401.5ZM1651.5 1890V1940H1451.5V1690H1651.5V1740H1501.5V1790H1601.5V1840H1501.5V1890H1651.5ZM1751.5 1940H1701.5V1690H1751.5V1790H1801.5V1840H1751.5V1940ZM1851.5 1740V1690H1901.5V1740H1851.5ZM1801.5 1790V1740H1851.5V1790H1801.5ZM1851.5 1890H1801.5V1840H1851.5V1890ZM1851.5 1940V1890H1901.5V1940H1851.5Z"/>
</mask>
<path d="M1001.5 990H951.5V1040H1001.5V990ZM1101.5 990H1151.5V940H1101.5V990ZM1101.5 1040V1090H1151.5V1040H1101.5ZM951.5 1040H901.5V1090H951.5V1040ZM951.5 790V740H901.5V790H951.5ZM1101.5 790H1151.5V740H1101.5V790ZM1101.5 840V890H1151.5V840H1101.5ZM1001.5 840V790H951.5V840H1001.5ZM1151.5 990V1040H1201.5V990H1151.5ZM1101.5 990H1051.5V1040H1101.5V990ZM1101.5 840V790H1051.5V840H1101.5ZM1151.5 840H1201.5V790H1151.5V840ZM1001.5 990V1040H1101.5V990V940H1001.5V990ZM1101.5 990H1051.5V1040H1101.5H1151.5V990H1101.5ZM1101.5 1040V990H951.5V1040V1090H1101.5V1040ZM951.5 1040H1001.5V790H951.5H901.5V1040H951.5ZM951.5 790V840H1101.5V790V740H951.5V790ZM1101.5 790H1051.5V840H1101.5H1151.5V790H1101.5ZM1101.5 840V790H1001.5V840V890H1101.5V840ZM1001.5 840H951.5V990H1001.5H1051.5V840H1001.5ZM1151.5 990V940H1101.5V990V1040H1151.5V990ZM1101.5 990H1151.5V840H1101.5H1051.5V990H1101.5ZM1101.5 840V890H1151.5V840V790H1101.5V840ZM1151.5 840H1101.5V990H1151.5H1201.5V840H1151.5ZM1251.5 1040V1090H1301.5V1040H1251.5ZM1201.5 1040H1151.5V1090H1201.5V1040ZM1201.5 790V740H1151.5V790H1201.5ZM1351.5 790H1401.5V740H1351.5V790ZM1351.5 840V890H1401.5V840H1351.5ZM1251.5 840V790H1201.5V840H1251.5ZM1251.5 890H1201.5V940H1251.5V890ZM1351.5 890H1401.5V840H1351.5V890ZM1351.5 940V990H1401.5V940H1351.5ZM1251.5 940V890H1201.5V940H1251.5ZM1401.5 890V940H1451.5V890H1401.5ZM1351.5 890H1301.5V940H1351.5V890ZM1351.5 840V790H1301.5V840H1351.5ZM1401.5 840H1451.5V790H1401.5V840ZM1401.5 1040V1090H1451.5V1040H1401.5ZM1351.5 1040H1301.5V1090H1351.5V1040ZM1351.5 940V890H1301.5V940H1351.5ZM1401.5 940H1451.5V890H1401.5V940ZM1251.5 1040V990H1201.5V1040V1090H1251.5V1040ZM1201.5 1040H1251.5V790H1201.5H1151.5V1040H1201.5ZM1201.5 790V840H1351.5V790V740H1201.5V790ZM1351.5 790H1301.5V840H1351.5H1401.5V790H1351.5ZM1351.5 840V790H1251.5V840V890H1351.5V840ZM1251.5 840H1201.5V890H1251.5H1301.5V840H1251.5ZM1251.5 890V940H1351.5V890V840H1251.5V890ZM1351.5 890H1301.5V940H1351.5H1401.5V890H1351.5ZM1351.5 940V890H1251.5V940V990H1351.5V940ZM1251.5 940H1201.5V1040H1251.5H1301.5V940H1251.5ZM1401.5 890V840H1351.5V890V940H1401.5V890ZM1351.5 890H1401.5V840H1351.5H1301.5V890H1351.5ZM1351.5 840V890H1401.5V840V790H1351.5V840ZM1401.5 840H1351.5V890H1401.5H1451.5V840H1401.5ZM1401.5 1040V990H1351.5V1040V1090H1401.5V1040ZM1351.5 1040H1401.5V940H1351.5H1301.5V1040H1351.5ZM1351.5 940V990H1401.5V940V890H1351.5V940ZM1401.5 940H1351.5V1040H1401.5H1451.5V940H1401.5ZM1501.5 840H1451.5V890H1501.5V840ZM1501.5 790V740H1451.5V790H1501.5ZM1601.5 790H1651.5V740H1601.5V790ZM1601.5 840V890H1651.5V840H1601.5ZM1501.5 990V1040H1551.5V990H1501.5ZM1451.5 990H1401.5V1040H1451.5V990ZM1451.5 840V790H1401.5V840H1451.5ZM1501.5 840H1551.5V790H1501.5V840ZM1651.5 990V1040H1701.5V990H1651.5ZM1601.5 990H1551.5V1040H1601.5V990ZM1601.5 840V790H1551.5V840H1601.5ZM1651.5 840H1701.5V790H1651.5V840ZM1601.5 990H1651.5V940H1601.5V990ZM1601.5 1040V1090H1651.5V1040H1601.5ZM1501.5 1040H1451.5V1090H1501.5V1040ZM1501.5 990V940H1451.5V990H1501.5ZM1501.5 840H1551.5V790H1501.5H1451.5V840H1501.5ZM1501.5 790V840H1601.5V790V740H1501.5V790ZM1601.5 790H1551.5V840H1601.5H1651.5V790H1601.5ZM1601.5 840V790H1501.5V840V890H1601.5V840ZM1501.5 990V940H1451.5V990V1040H1501.5V990ZM1451.5 990H1501.5V840H1451.5H1401.5V990H1451.5ZM1451.5 840V890H1501.5V840V790H1451.5V840ZM1501.5 840H1451.5V990H1501.5H1551.5V840H1501.5ZM1651.5 990V940H1601.5V990V1040H1651.5V990ZM1601.5 990H1651.5V840H1601.5H1551.5V990H1601.5ZM1601.5 840V890H1651.5V840V790H1601.5V840ZM1651.5 840H1601.5V990H1651.5H1701.5V840H1651.5ZM1601.5 990H1551.5V1040H1601.5H1651.5V990H1601.5ZM1601.5 1040V990H1501.5V1040V1090H1601.5V1040ZM1501.5 1040H1551.5V990H1501.5H1451.5V1040H1501.5ZM1501.5 990V1040H1601.5V990V940H1501.5V990ZM1751.5 1040V1090H1801.5V1040H1751.5ZM1701.5 1040H1651.5V1090H1701.5V1040ZM1701.5 790V740H1651.5V790H1701.5ZM1851.5 790H1901.5V740H1851.5V790ZM1851.5 840V890H1901.5V840H1851.5ZM1751.5 840V790H1701.5V840H1751.5ZM1751.5 890H1701.5V940H1751.5V890ZM1851.5 890H1901.5V840H1851.5V890ZM1851.5 940V990H1901.5V940H1851.5ZM1751.5 940V890H1701.5V940H1751.5ZM1851.5 890H1801.5V940H1851.5V890ZM1851.5 840V790H1801.5V840H1851.5ZM1901.5 840H1951.5V790H1901.5V840ZM1901.5 890V940H1951.5V890H1901.5ZM1751.5 1040V990H1701.5V1040V1090H1751.5V1040ZM1701.5 1040H1751.5V790H1701.5H1651.5V1040H1701.5ZM1701.5 790V840H1851.5V790V740H1701.5V790ZM1851.5 790H1801.5V840H1851.5H1901.5V790H1851.5ZM1851.5 840V790H1751.5V840V890H1851.5V840ZM1751.5 840H1701.5V890H1751.5H1801.5V840H1751.5ZM1751.5 890V940H1851.5V890V840H1751.5V890ZM1851.5 890H1801.5V940H1851.5H1901.5V890H1851.5ZM1851.5 940V890H1751.5V940V990H1851.5V940ZM1751.5 940H1701.5V1040H1751.5H1801.5V940H1751.5ZM1851.5 890H1901.5V840H1851.5H1801.5V890H1851.5ZM1851.5 840V890H1901.5V840V790H1851.5V840ZM1901.5 840H1851.5V890H1901.5H1951.5V840H1901.5ZM1901.5 890V840H1851.5V890V940H1901.5V890ZM1376.5 1490V1540H1426.5V1490H1376.5ZM1326.5 1490H1276.5V1540H1326.5V1490ZM1326.5 1240V1190H1276.5V1240H1326.5ZM1376.5 1240H1426.5V1190H1376.5V1240ZM1376.5 1290H1326.5V1340H1376.5V1290ZM1426.5 1290H1476.5V1240H1426.5V1290ZM1426.5 1340V1390H1476.5V1340H1426.5ZM1376.5 1340V1290H1326.5V1340H1376.5ZM1526.5 1490V1540H1576.5V1490H1526.5ZM1476.5 1490H1426.5V1540H1476.5V1490ZM1476.5 1390H1526.5V1340H1476.5V1390ZM1426.5 1390H1376.5V1440H1426.5V1390ZM1426.5 1340V1290H1376.5V1340H1426.5ZM1476.5 1340V1390H1526.5V1340H1476.5ZM1476.5 1240V1190H1426.5V1240H1476.5ZM1526.5 1240H1576.5V1190H1526.5V1240ZM1376.5 1490V1440H1326.5V1490V1540H1376.5V1490ZM1326.5 1490H1376.5V1240H1326.5H1276.5V1490H1326.5ZM1326.5 1240V1290H1376.5V1240V1190H1326.5V1240ZM1376.5 1240H1326.5V1290H1376.5H1426.5V1240H1376.5ZM1376.5 1290V1340H1426.5V1290V1240H1376.5V1290ZM1426.5 1290H1376.5V1340H1426.5H1476.5V1290H1426.5ZM1426.5 1340V1290H1376.5V1340V1390H1426.5V1340ZM1376.5 1340H1326.5V1490H1376.5H1426.5V1340H1376.5ZM1526.5 1490V1440H1476.5V1490V1540H1526.5V1490ZM1476.5 1490H1526.5V1390H1476.5H1426.5V1490H1476.5ZM1476.5 1390V1340H1426.5V1390V1440H1476.5V1390ZM1426.5 1390H1476.5V1340H1426.5H1376.5V1390H1426.5ZM1426.5 1340V1390H1476.5V1340V1290H1426.5V1340ZM1476.5 1340H1526.5V1240H1476.5H1426.5V1340H1476.5ZM1476.5 1240V1290H1526.5V1240V1190H1476.5V1240ZM1526.5 1240H1476.5V1490H1526.5H1576.5V1240H1526.5ZM1001.5 1740H951.5V1790H1001.5V1740ZM1001.5 1690V1640H951.5V1690H1001.5ZM1151.5 1690H1201.5V1640H1151.5V1690ZM1151.5 1740V1790H1201.5V1740H1151.5ZM951.5 1790H901.5V1840H951.5V1790ZM951.5 1740V1690H901.5V1740H951.5ZM1001.5 1740H1051.5V1690H1001.5V1740ZM1001.5 1790V1840H1051.5V1790H1001.5ZM1001.5 1790V1740H951.5V1790H1001.5ZM1101.5 1790H1151.5V1740H1101.5V1790ZM1101.5 1840V1890H1151.5V1840H1101.5ZM1001.5 1840H951.5V1890H1001.5V1840ZM1151.5 1890V1940H1201.5V1890H1151.5ZM1101.5 1890H1051.5V1940H1101.5V1890ZM1101.5 1840V1790H1051.5V1840H1101.5ZM1151.5 1840H1201.5V1790H1151.5V1840ZM1101.5 1890H1151.5V1840H1101.5V1890ZM1101.5 1940V1990H1151.5V1940H1101.5ZM951.5 1940H901.5V1990H951.5V1940ZM951.5 1890V1840H901.5V1890H951.5ZM1001.5 1740H1051.5V1690H1001.5H951.5V1740H1001.5ZM1001.5 1690V1740H1151.5V1690V1640H1001.5V1690ZM1151.5 1690H1101.5V1740H1151.5H1201.5V1690H1151.5ZM1151.5 1740V1690H1001.5V1740V1790H1151.5V1740ZM951.5 1790H1001.5V1740H951.5H901.5V1790H951.5ZM951.5 1740V1790H1001.5V1740V1690H951.5V1740ZM1001.5 1740H951.5V1790H1001.5H1051.5V1740H1001.5ZM1001.5 1790V1740H951.5V1790V1840H1001.5V1790ZM1001.5 1790V1840H1101.5V1790V1740H1001.5V1790ZM1101.5 1790H1051.5V1840H1101.5H1151.5V1790H1101.5ZM1101.5 1840V1790H1001.5V1840V1890H1101.5V1840ZM1001.5 1840H1051.5V1790H1001.5H951.5V1840H1001.5ZM1151.5 1890V1840H1101.5V1890V1940H1151.5V1890ZM1101.5 1890H1151.5V1840H1101.5H1051.5V1890H1101.5ZM1101.5 1840V1890H1151.5V1840V1790H1101.5V1840ZM1151.5 1840H1101.5V1890H1151.5H1201.5V1840H1151.5ZM1101.5 1890H1051.5V1940H1101.5H1151.5V1890H1101.5ZM1101.5 1940V1890H951.5V1940V1990H1101.5V1940ZM951.5 1940H1001.5V1890H951.5H901.5V1940H951.5ZM951.5 1890V1940H1101.5V1890V1840H951.5V1890ZM1401.5 1890H1451.5V1840H1401.5V1890ZM1401.5 1940V1990H1451.5V1940H1401.5ZM1201.5 1940H1151.5V1990H1201.5V1940ZM1201.5 1690V1640H1151.5V1690H1201.5ZM1401.5 1690H1451.5V1640H1401.5V1690ZM1401.5 1740V1790H1451.5V1740H1401.5ZM1251.5 1740V1690H1201.5V1740H1251.5ZM1251.5 1790H1201.5V1840H1251.5V1790ZM1351.5 1790H1401.5V1740H1351.5V1790ZM1351.5 1840V1890H1401.5V1840H1351.5ZM1251.5 1840V1790H1201.5V1840H1251.5ZM1251.5 1890H1201.5V1940H1251.5V1890ZM1401.5 1890H1351.5V1940H1401.5H1451.5V1890H1401.5ZM1401.5 1940V1890H1201.5V1940V1990H1401.5V1940ZM1201.5 1940H1251.5V1690H1201.5H1151.5V1940H1201.5ZM1201.5 1690V1740H1401.5V1690V1640H1201.5V1690ZM1401.5 1690H1351.5V1740H1401.5H1451.5V1690H1401.5ZM1401.5 1740V1690H1251.5V1740V1790H1401.5V1740ZM1251.5 1740H1201.5V1790H1251.5H1301.5V1740H1251.5ZM1251.5 1790V1840H1351.5V1790V1740H1251.5V1790ZM1351.5 1790H1301.5V1840H1351.5H1401.5V1790H1351.5ZM1351.5 1840V1790H1251.5V1840V1890H1351.5V1840ZM1251.5 1840H1201.5V1890H1251.5H1301.5V1840H1251.5ZM1251.5 1890V1940H1401.5V1890V1840H1251.5V1890ZM1651.5 1890H1701.5V1840H1651.5V1890ZM1651.5 1940V1990H1701.5V1940H1651.5ZM1451.5 1940H1401.5V1990H1451.5V1940ZM1451.5 1690V1640H1401.5V1690H1451.5ZM1651.5 1690H1701.5V1640H1651.5V1690ZM1651.5 1740V1790H1701.5V1740H1651.5ZM1501.5 1740V1690H1451.5V1740H1501.5ZM1501.5 1790H1451.5V1840H1501.5V1790ZM1601.5 1790H1651.5V1740H1601.5V1790ZM1601.5 1840V1890H1651.5V1840H1601.5ZM1501.5 1840V1790H1451.5V1840H1501.5ZM1501.5 1890H1451.5V1940H1501.5V1890ZM1651.5 1890H1601.5V1940H1651.5H1701.5V1890H1651.5ZM1651.5 1940V1890H1451.5V1940V1990H1651.5V1940ZM1451.5 1940H1501.5V1690H1451.5H1401.5V1940H1451.5ZM1451.5 1690V1740H1651.5V1690V1640H1451.5V1690ZM1651.5 1690H1601.5V1740H1651.5H1701.5V1690H1651.5ZM1651.5 1740V1690H1501.5V1740V1790H1651.5V1740ZM1501.5 1740H1451.5V1790H1501.5H1551.5V1740H1501.5ZM1501.5 1790V1840H1601.5V1790V1740H1501.5V1790ZM1601.5 1790H1551.5V1840H1601.5H1651.5V1790H1601.5ZM1601.5 1840V1790H1501.5V1840V1890H1601.5V1840ZM1501.5 1840H1451.5V1890H1501.5H1551.5V1840H1501.5ZM1501.5 1890V1940H1651.5V1890V1840H1501.5V1890ZM1751.5 1940V1990H1801.5V1940H1751.5ZM1701.5 1940H1651.5V1990H1701.5V1940ZM1701.5 1690V1640H1651.5V1690H1701.5ZM1751.5 1690H1801.5V1640H1751.5V1690ZM1751.5 1790H1701.5V1840H1751.5V1790ZM1801.5 1790H1851.5V1740H1801.5V1790ZM1801.5 1840V1890H1851.5V1840H1801.5ZM1751.5 1840V1790H1701.5V1840H1751.5ZM1851.5 1740H1801.5V1790H1851.5V1740ZM1851.5 1690V1640H1801.5V1690H1851.5ZM1901.5 1690H1951.5V1640H1901.5V1690ZM1901.5 1740V1790H1951.5V1740H1901.5ZM1801.5 1790H1751.5V1840H1801.5V1790ZM1801.5 1740V1690H1751.5V1740H1801.5ZM1851.5 1740H1901.5V1690H1851.5V1740ZM1851.5 1790V1840H1901.5V1790H1851.5ZM1851.5 1890V1940H1901.5V1890H1851.5ZM1801.5 1890H1751.5V1940H1801.5V1890ZM1801.5 1840V1790H1751.5V1840H1801.5ZM1851.5 1840H1901.5V1790H1851.5V1840ZM1851.5 1940H1801.5V1990H1851.5V1940ZM1851.5 1890V1840H1801.5V1890H1851.5ZM1901.5 1890H1951.5V1840H1901.5V1890ZM1901.5 1940V1990H1951.5V1940H1901.5ZM1751.5 1940V1890H1701.5V1940V1990H1751.5V1940ZM1701.5 1940H1751.5V1690H1701.5H1651.5V1940H1701.5ZM1701.5 1690V1740H1751.5V1690V1640H1701.5V1690ZM1751.5 1690H1701.5V1790H1751.5H1801.5V1690H1751.5ZM1751.5 1790V1840H1801.5V1790V1740H1751.5V1790ZM1801.5 1790H1751.5V1840H1801.5H1851.5V1790H1801.5ZM1801.5 1840V1790H1751.5V1840V1890H1801.5V1840ZM1751.5 1840H1701.5V1940H1751.5H1801.5V1840H1751.5ZM1851.5 1740H1901.5V1690H1851.5H1801.5V1740H1851.5ZM1851.5 1690V1740H1901.5V1690V1640H1851.5V1690ZM1901.5 1690H1851.5V1740H1901.5H1951.5V1690H1901.5ZM1901.5 1740V1690H1851.5V1740V1790H1901.5V1740ZM1801.5 1790H1851.5V1740H1801.5H1751.5V1790H1801.5ZM1801.5 1740V1790H1851.5V1740V1690H1801.5V1740ZM1851.5 1740H1801.5V1790H1851.5H1901.5V1740H1851.5ZM1851.5 1790V1740H1801.5V1790V1840H1851.5V1790ZM1851.5 1890V1840H1801.5V1890V1940H1851.5V1890ZM1801.5 1890H1851.5V1840H1801.5H1751.5V1890H1801.5ZM1801.5 1840V1890H1851.5V1840V1790H1801.5V1840ZM1851.5 1840H1801.5V1890H1851.5H1901.5V1840H1851.5ZM1851.5 1940H1901.5V1890H1851.5H1801.5V1940H1851.5ZM1851.5 1890V1940H1901.5V1890V1840H1851.5V1890ZM1901.5 1890H1851.5V1940H1901.5H1951.5V1890H1901.5ZM1901.5 1940V1890H1851.5V1940V1990H1901.5V1940Z" fill="#092A3E" mask="url(#path-3-outside-1_57_14)"/>
</svg>
